<svg xmlns="http://www.w3.org/2000/svg" aria-hidden="true" style="position:absolute;width:0;height:0;overflow:hidden">
	<defs>
		<symbol id="icon-big-logo" viewBox="0 0 32 32">
			<path fill="#ffe550" d="M11.143 8.485c.796-1.561 3.022-1.561 3.819 0l1.008 1.976a2.143 2.143 0 0 0 1.573 1.144l2.184.348c1.73.275 2.419 2.401 1.18 3.642l-1.559 1.561a2.153 2.153 0 0 0-.602 1.855l.344 2.183c.273 1.733-1.528 3.045-3.089 2.251l-1.978-1.007a2.138 2.138 0 0 0-1.942 0l-1.978 1.007c-1.561.794-3.362-.519-3.089-2.251l.344-2.183a2.153 2.153 0 0 0-.602-1.855l-1.559-1.561c-1.239-1.241-.55-3.367 1.18-3.642l2.184-.348a2.146 2.146 0 0 0 1.573-1.144l1.008-1.976z" style="fill:var(--color1, #ffe550)"/>
			<path fill="#2c2c2c" d="m.879 19.431-.017.004c.002.058-.001.295-.009.709-.002.413-.003.684-.002.813 0 .124-.003.224-.008.302l.001.265a1.78 1.78 0 0 1-.015.233l-.014.162c-.011.103-.033.158-.067.166-.072.017-.185-.039-.339-.167-.155-.134-.245-.251-.268-.352s-.03-.835-.019-2.203c.017-1.37-.02-2.271-.11-2.703a.328.328 0 0 1 .011-.215c.028-.13.172-.253.433-.367.266-.116.664-.236 1.193-.362.534-.126.958-.197 1.272-.213.319-.017.491.025.514.126.016.067-.02.126-.108.176s-.166.092-.235.126l-.274.109-.318.11a8.11 8.11 0 0 0-.384.126c-.152.054-.293.105-.422.153-.131.043-.307.105-.529.187s-.365.133-.431.155c.01.015.018.04.026.073.062.262.096.89.102 1.883a8.609 8.609 0 0 0 1.104-.288c.393-.128.634-.203.723-.224.211-.05.328-.03.349.059.041.173-.167.375-.623.607-.451.23-.963.413-1.536.549zm5.45-1.537a1.608 1.608 0 0 0-.218-.514.743.743 0 0 0-.356-.313c-.359.197-.619.573-.782 1.13-.158.55-.186 1.039-.085 1.468s.271.672.507.728c.382-.173.657-.526.825-1.061.172-.541.208-1.021.109-1.439zm-2.178.595c.092-.481.261-.898.506-1.25.25-.359.539-.578.867-.656.334-.079.646-.003.936.229.289.226.481.543.577.95.095.401.095.837.001 1.307a2.974 2.974 0 0 1-.562 1.237c-.275.354-.604.576-.988.666-.284.067-.551-.008-.803-.225s-.424-.527-.519-.928a3.255 3.255 0 0 1-.015-1.33zM10.111 17a1.608 1.608 0 0 0-.218-.514.743.743 0 0 0-.356-.313c-.359.197-.619.573-.782 1.13-.158.55-.186 1.039-.085 1.468s.271.672.507.728c.382-.173.657-.526.825-1.061.172-.541.208-1.021.109-1.439zm-2.177.594c.092-.481.261-.898.506-1.25.25-.359.539-.578.867-.656.334-.079.646-.003.936.229.289.226.481.543.577.95.095.401.095.837.001 1.307a2.974 2.974 0 0 1-.562 1.237c-.275.354-.604.576-.988.667-.284.067-.551-.008-.802-.225s-.424-.527-.519-.928a3.255 3.255 0 0 1-.015-1.33zm6.121-5.502c.089-.021.217.037.385.174.172.13.275.268.309.413s.062.574.084 1.287c.02.708.025 1.445.012 2.214-.016 1.723-.087 2.599-.215 2.63-.078.018-.175-.009-.292-.081-.113-.079-.178-.155-.195-.228s-.032-.222-.044-.449c-.413.687-.823 1.078-1.23 1.174-.245.058-.494-.001-.747-.177-.248-.177-.4-.385-.456-.625-.082-.346-.087-.777-.015-1.295.076-.524.243-1.023.501-1.496s.585-.757.98-.85.727.078.995.515c.004-1.249-.061-2.22-.195-2.912-.04-.167.002-.265.124-.294zm.053 4.324c-.071-.301-.184-.542-.339-.724-.149-.183-.296-.257-.44-.223-.239.057-.449.262-.63.617s-.3.742-.36 1.163c-.055.413-.05.759.016 1.038.024.1.079.173.166.217s.18.055.281.031c.217-.051.472-.277.766-.676.299-.4.482-.832.549-1.296l.001-.106-.01-.042zm5.329-.501c.108.457-.007.891-.345 1.3a2.38 2.38 0 0 1-1.31.796c-.529.125-.998.092-1.407-.1-.411-.197-.645-.418-.703-.664-.04-.167-.009-.263.091-.286.089-.021.296.071.621.277.123.071.277.129.464.173.192.043.383.042.572-.003.39-.092.711-.274.964-.546.259-.273.36-.527.305-.761-.036-.15-.181-.319-.437-.506s-.53-.354-.824-.503c-.289-.155-.563-.329-.82-.521s-.402-.358-.435-.498-.04-.294-.021-.463c.019-.169.053-.298.103-.386.16-.291.445-.591.854-.9.414-.31.777-.502 1.089-.576.161-.038.31-.017.447.062s.218.178.246.295c.013.056-.035.114-.144.175s-.276.148-.503.26a4.01 4.01 0 0 0-.582.332c-.582.397-.846.709-.792.938.029.123.436.389 1.22.798.302.158.587.359.856.601.273.236.437.471.493.705zm1.918.42c.025.106.099.144.221.115.211-.05.454-.169.726-.357.277-.195.432-.297.466-.304.1-.024.163.017.188.123.038.162-.085.388-.368.679-.278.29-.554.467-.826.531a1.057 1.057 0 0 1-.719-.059c-.214-.108-.339-.241-.376-.397s-.05-.362-.04-.617c.009-.261.028-.604.056-1.029.033-.432.055-.787.065-1.066-.247.123-.415.195-.504.216s-.189-.002-.299-.071c-.106-.075-.169-.154-.189-.238-.032-.134.3-.348.994-.641a6 6 0 0 0-.141-1.265c-.04-.167-.004-.264.108-.29.095-.022.226.011.394.101.167.084.268.202.304.352s.051.427.046.828c.311-.103.561-.177.75-.222.334-.079.518-.046.552.099.02.084-.056.175-.226.274-.165.098-.523.274-1.074.528a38.555 38.555 0 0 1-.084 1.618c-.045.605-.053.969-.024 1.092zm3.73-4.379c.25-.059.512.014.784.221.271.201.431.404.479.611.047.201.027.423-.062.668.087.068.137.132.152.194.037.156.064.432.081.829.023.395.04.653.051.774.017.12.028.217.034.292.005.07.007.14.006.211.011.145-.023.226-.101.245-.1.024-.204-.043-.312-.2a2.536 2.536 0 0 1-.271-.66c-.346.747-.731 1.171-1.154 1.271-.256.061-.535.012-.837-.146-.298-.165-.474-.365-.529-.599-.079-.335-.054-.776.075-1.325.128-.554.341-1.07.639-1.546s.62-.756.965-.838zm.732 1.381c-.123-.518-.287-.753-.493-.705-.217.051-.433.267-.649.648-.217.375-.379.782-.487 1.219s-.135.771-.081.999c.022.095.08.164.172.207a.475.475 0 0 0 .295.018c.262-.062.515-.307.76-.736.244-.435.37-.921.378-1.458-.003-.088.032-.149.106-.184l-.002-.008z" style="fill:var(--color2, #2c2c2c)"/>
			<path fill="#bbf330" d="M24.234 19.128a.719.719 0 0 0-.505.474c-1.502 4.448-5.707 7.653-10.664 7.653a11.21 11.21 0 0 1-7.753-3.098.719.719 0 0 0-.666-.183c-.503.125-.694.736-.32 1.096a12.55 12.55 0 0 0 8.739 3.528c5.576 0 10.306-3.626 11.962-8.65.162-.493-.29-.944-.793-.82zM1.471 14.543a.713.713 0 0 0 .524-.571c.954-5.247 5.546-9.228 11.07-9.228 3.592 0 6.79 1.683 8.849 4.303.173.22.456.326.727.259.46-.114.668-.649.377-1.024a12.571 12.571 0 0 0-9.954-4.88c-6.21 0-11.37 4.497-12.404 10.413-.082.466.351.842.809.729zM32 7.6c-2.976 5.702-4.282 1.941-8.472 4.15.419-6.619 4.856-2.591 8.472-4.15z" style="fill:var(--color3, #bbf330)"/>
		</symbol>
		<symbol id="icon-close-button" viewBox="0 0 32 32">
			<path d="m17.45 14.826 4.928-4.924a1.012 1.012 0 0 0-1.43-1.428l-4.927 4.873-4.958-4.954a1.013 1.013 0 0 0-1.43 1.428l4.948 5.005-4.846 4.782a1.002 1.002 0 0 0-.284 1.139 1.014 1.014 0 0 0 1.714.29l4.836-4.833 4.806 4.802a1.013 1.013 0 0 0 1.43-1.428l-4.786-4.751z"/>
		</symbol>
		<symbol id="icon-ep-arrow-up" viewBox="0 0 32 32">
			<path fill="#fff" d="M2.286 20.571V6.857a4.571 4.571 0 0 1 4.571-4.571h18.286a4.571 4.571 0 0 1 4.571 4.571v13.714a4.571 4.571 0 0 1-4.571 4.571H6.857a4.571 4.571 0 0 1-4.571-4.571z" style="fill:var(--color4, #fff)"/>
			<path fill="#2c2c2c" d="m9.972 14.231 7.961 7.586a.712.712 0 0 0 .986 0l.009-.009a.643.643 0 0 0 .204-.476.66.66 0 0 0-.204-.476l-7.497-7.143 7.497-7.14a.643.643 0 0 0 .204-.476.66.66 0 0 0-.204-.476l-.009-.009a.712.712 0 0 0-.986 0l-7.961 7.586a.716.716 0 0 0 0 1.034z" style="fill:var(--color2, #2c2c2c)"/>
		</symbol>
		<symbol id="icon-favicon" viewBox="0 0 32 32">
			<path fill="#fff" d="M0 0h32v32H0V0z" style="fill:var(--color4, #fff)"/>
			<path fill="#ffe550" d="M13.557 6.456c1.012-1.982 3.84-1.982 4.852 0l1.281 2.51a2.726 2.726 0 0 0 1.999 1.453l2.775.441c2.198.35 3.073 3.049 1.499 4.625l-1.98 1.983a2.73 2.73 0 0 0-.765 2.356l.437 2.773c.347 2.2-1.942 3.868-3.925 2.859l-2.513-1.278a2.722 2.722 0 0 0-2.467 0l-2.513 1.278c-1.983 1.009-4.272-.659-3.925-2.859l.437-2.773a2.731 2.731 0 0 0-.765-2.356l-1.98-1.983c-1.574-1.576-.699-4.275 1.499-4.625l2.775-.441a2.728 2.728 0 0 0 1.999-1.453l1.281-2.51z" style="fill:var(--color1, #ffe550)"/>
			<path fill="#bbf330" d="M16 32C7.163 32 0 24.837 0 16S7.163 0 16 0s16 7.163 16 16-7.163 16-16 16zm0-1.706c7.899 0 14.297-6.402 14.297-14.294S23.899 1.706 16 1.706 1.703 8.108 1.703 16 8.101 30.294 16 30.294z" style="fill:var(--color3, #bbf330)"/>
		</symbol>
		<symbol id="icon-gg-menu" viewBox="0 0 32 32">
			<path fill="#7eb101" d="M2.666 8A1.335 1.335 0 0 1 4 6.666h24A1.33 1.33 0 0 1 29.333 8 1.333 1.333 0 0 1 28 9.334H4A1.335 1.335 0 0 1 2.666 8zm0 8.043A1.33 1.33 0 0 1 4 14.71h24a1.333 1.333 0 1 1 0 2.666H4a1.333 1.333 0 0 1-1.334-1.333zM4 22.752a1.337 1.337 0 0 0-1.334 1.333A1.33 1.33 0 0 0 4 25.418h24a1.333 1.333 0 1 0 0-2.666H4z" style="fill:var(--color5, #7eb101)"/>
		</symbol>
		<symbol id="icon-logo" viewBox="0 0 32 32">
			<path fill="#ffe550" d="M11.143 8.48c.796-1.562 3.022-1.562 3.818 0l1.008 1.977a2.144 2.144 0 0 0 1.573 1.145l2.184.348c1.73.275 2.419 2.402 1.18 3.644l-1.559 1.562a2.154 2.154 0 0 0-.602 1.856l.344 2.184c.273 1.734-1.528 3.047-3.089 2.252l-1.978-1.007a2.138 2.138 0 0 0-1.942 0l-1.978 1.007c-1.561.795-3.362-.519-3.089-2.253l.344-2.184a2.154 2.154 0 0 0-.602-1.856l-1.559-1.562c-1.239-1.242-.55-3.369 1.18-3.644l2.184-.348a2.144 2.144 0 0 0 1.573-1.145l1.008-1.977z" style="fill:var(--color1, #ffe550)"/>
			<path fill="#2c2c2c" d="m.879 19.433-.017.004c.002.058-.001.295-.009.709-.002.413-.003.684-.002.813 0 .124-.003.225-.008.302l.001.265a1.769 1.769 0 0 1-.015.233l-.014.162c-.011.103-.033.158-.067.166-.072.017-.185-.039-.339-.167-.155-.134-.245-.251-.268-.352s-.03-.835-.019-2.205c.017-1.371-.02-2.272-.11-2.704a.328.328 0 0 1 .011-.215c.028-.13.172-.253.433-.368.266-.116.664-.237 1.193-.362.534-.126.958-.197 1.272-.213.319-.017.491.025.514.126.016.067-.02.126-.108.176s-.166.092-.235.126l-.274.109-.318.111a8.11 8.11 0 0 0-.384.126c-.152.054-.293.105-.422.153-.131.043-.307.105-.529.187s-.365.134-.431.155c.01.015.018.04.026.073.062.262.096.89.102 1.885a8.609 8.609 0 0 0 1.104-.288c.393-.128.634-.203.723-.224.211-.05.328-.03.349.059.041.173-.167.375-.623.607a6.81 6.81 0 0 1-1.536.549zm5.45-1.538a1.608 1.608 0 0 0-.218-.514.743.743 0 0 0-.356-.313c-.359.197-.62.574-.782 1.131-.158.55-.186 1.04-.085 1.469s.271.672.507.728c.382-.173.657-.527.825-1.061.172-.541.208-1.021.109-1.44zm-2.178.595a3.23 3.23 0 0 1 .506-1.251c.25-.36.539-.578.867-.656.334-.079.646-.003.936.229.289.226.481.543.577.95.095.402.095.838.001 1.308a2.978 2.978 0 0 1-.562 1.238c-.275.354-.604.576-.988.667-.284.067-.551-.008-.803-.225s-.424-.527-.519-.929a3.26 3.26 0 0 1-.015-1.331zm5.96-1.49a1.608 1.608 0 0 0-.218-.514.743.743 0 0 0-.356-.313c-.359.197-.62.574-.782 1.131-.158.55-.186 1.04-.085 1.469s.271.672.507.728c.382-.173.657-.527.825-1.061.172-.541.208-1.021.109-1.44zm-2.177.595a3.23 3.23 0 0 1 .506-1.251c.25-.36.539-.578.867-.656.334-.079.646-.003.936.229.289.226.481.543.577.95.095.402.095.838.001 1.308a2.978 2.978 0 0 1-.562 1.238c-.275.354-.604.576-.988.667-.284.067-.551-.008-.803-.225s-.424-.527-.519-.929a3.26 3.26 0 0 1-.015-1.331zm6.121-5.505c.089-.021.217.037.385.174.172.13.275.268.309.413s.062.574.084 1.288c.02.708.025 1.446.012 2.215-.016 1.724-.087 2.601-.215 2.631-.078.018-.175-.009-.292-.081-.113-.079-.178-.155-.195-.228s-.032-.222-.044-.449c-.413.687-.823 1.079-1.23 1.175-.245.058-.494-.001-.747-.177-.248-.177-.4-.386-.456-.625-.082-.346-.087-.778-.015-1.295.076-.525.243-1.024.501-1.497s.585-.757.98-.851.727.078.995.516c.004-1.25-.061-2.221-.195-2.914-.04-.167.002-.266.124-.295zm.053 4.326c-.071-.301-.184-.543-.339-.724-.149-.183-.296-.257-.441-.223-.239.057-.449.262-.63.617s-.3.743-.36 1.163c-.055.414-.05.76.016 1.039.024.1.079.173.166.217s.18.055.281.031c.217-.051.472-.277.766-.676a2.82 2.82 0 0 0 .549-1.296l.001-.106-.01-.042zm5.329-.501c.108.458-.007.891-.345 1.301-.339.404-.776.67-1.31.796-.529.125-.998.092-1.407-.1-.411-.197-.645-.419-.704-.664-.04-.167-.009-.263.091-.287.089-.021.296.071.621.277.123.071.277.129.464.173.192.043.383.042.572-.003.39-.092.711-.274.964-.546.259-.273.36-.527.305-.761-.036-.151-.181-.319-.437-.506s-.53-.355-.824-.503c-.289-.155-.563-.329-.82-.522s-.402-.358-.435-.498-.04-.294-.021-.463c.019-.169.053-.298.102-.387.16-.291.445-.591.854-.9.414-.31.777-.502 1.089-.576.161-.038.31-.017.447.062s.218.178.246.295c.013.056-.035.114-.144.175s-.276.148-.503.26a4.078 4.078 0 0 0-.583.332c-.582.397-.846.71-.792.939.029.123.436.389 1.22.798.302.158.587.359.856.601.273.236.437.471.493.705zm1.918.421c.025.106.099.145.221.116.212-.05.454-.169.726-.358.277-.195.432-.297.466-.305.1-.024.163.017.188.123.038.162-.084.388-.368.679-.278.29-.554.467-.826.531a1.057 1.057 0 0 1-.719-.059c-.214-.108-.339-.241-.376-.397s-.05-.362-.04-.618c.009-.261.028-.604.056-1.03.033-.432.055-.788.065-1.067-.247.123-.415.195-.504.217s-.189-.002-.299-.071c-.106-.075-.169-.154-.189-.238-.032-.134.3-.348.994-.642a6.074 6.074 0 0 0-.14-1.266c-.04-.167-.004-.264.108-.291.095-.022.226.011.394.101.167.084.268.202.304.352s.051.427.046.829c.311-.103.561-.177.75-.222.334-.079.518-.046.552.099.02.084-.056.175-.226.274-.165.098-.523.274-1.074.528a38.68 38.68 0 0 1-.084 1.619c-.045.606-.053.97-.024 1.093zm3.73-4.383c.25-.059.512.014.784.221.271.201.431.405.479.611.047.201.027.424-.062.669.087.068.137.132.152.194.037.156.064.433.081.829.023.395.04.653.051.774.017.12.028.217.034.292.005.07.007.14.006.211.011.145-.023.226-.101.245-.1.024-.204-.043-.312-.2a2.53 2.53 0 0 1-.271-.661c-.346.748-.731 1.172-1.154 1.272-.256.061-.535.012-.837-.147-.298-.165-.474-.365-.529-.599-.079-.335-.054-.777.075-1.325.127-.554.34-1.07.639-1.547s.62-.757.965-.838zm.732 1.382c-.123-.519-.287-.754-.493-.705-.217.051-.433.268-.649.648-.217.375-.379.782-.487 1.22s-.135.771-.081 1c.022.095.08.164.172.207a.475.475 0 0 0 .295.019c.262-.062.515-.307.76-.737.244-.435.37-.921.378-1.459-.003-.088.032-.149.106-.184l-.002-.008z" style="fill:var(--color2, #2c2c2c)"/>
			<path fill="#bbf330" d="M24.234 19.13a.719.719 0 0 0-.505.474c-1.502 4.451-5.707 7.658-10.664 7.658a11.206 11.206 0 0 1-7.753-3.1.719.719 0 0 0-.666-.183c-.503.125-.694.736-.32 1.097a12.543 12.543 0 0 0 8.739 3.53c5.576 0 10.306-3.628 11.962-8.656.162-.493-.29-.945-.793-.82zM1.471 14.543a.713.713 0 0 0 .524-.571c.954-5.251 5.546-9.234 11.07-9.234 3.592 0 6.79 1.684 8.849 4.305.173.22.456.326.727.259.46-.114.668-.65.377-1.025a12.568 12.568 0 0 0-9.954-4.883c-6.21 0-11.37 4.5-12.404 10.419-.082.467.351.843.809.729zM32 7.595c-2.976 5.705-4.282 1.942-8.472 4.153.419-6.623 4.856-2.593 8.472-4.153z" style="fill:var(--color3, #bbf330)"/>
		</symbol>
		<symbol id="icon-rocket-launch" viewBox="0 0 32 32">
			<path fill="#7eb101" d="m7.233 13.633 3.533 1.5c.4-.8.828-1.589 1.283-2.367s.939-1.522 1.45-2.233L10.866 10l-3.633 3.633zm5.134 2.7 4.433 4.433c1.267-.578 2.456-1.233 3.567-1.967s2.011-1.444 2.7-2.133c1.8-1.8 3.122-3.644 3.967-5.533s1.3-4.022 1.367-6.4c-2.378.067-4.511.522-6.4 1.367s-3.733 2.167-5.533 3.967c-.689.689-1.4 1.589-2.133 2.7s-1.389 2.3-1.967 3.567zm7.633-3.2c-.444-.444-.667-.995-.667-1.65s.222-1.206.667-1.65.994-.667 1.65-.667c.656 0 1.206.222 1.65.667s.667.994.667 1.65c0 .655-.222 1.206-.667 1.65s-.994.667-1.65.667-1.206-.222-1.65-.667zM19.5 25.9l3.633-3.633-.533-2.633c-.711.511-1.456.994-2.233 1.45S18.8 21.967 18 22.367l1.5 3.533zM30.367 2.767c.2 3.022-.178 5.778-1.133 8.267s-2.533 4.833-4.733 7.033l-.133.133.733 3.667c.067.333.05.656-.05.967s-.272.589-.517.833l-5.7 5.733-2.833-6.6-5.667-5.667-6.6-2.833 5.733-5.7c.244-.244.522-.417.833-.517s.633-.117.967-.05l3.667.733c.022-.022.044-.039.067-.05s.044-.028.067-.05c2.2-2.2 4.544-3.783 7.033-4.75s5.244-1.35 8.267-1.15zm-24.4 18.4c.778-.778 1.728-1.172 2.85-1.183s2.072.372 2.85 1.15c.778.778 1.161 1.728 1.15 2.85s-.406 2.072-1.183 2.85c-.578.578-1.472 1.055-2.683 1.433s-3.028.733-5.45 1.067c.333-2.422.683-4.244 1.05-5.467s.839-2.122 1.417-2.7zm1.4 1.433c-.311.333-.589.856-.833 1.567s-.456 1.622-.633 2.733c1.111-.178 2.022-.389 2.733-.633s1.233-.522 1.567-.833c.422-.378.639-.85.65-1.417s-.183-1.061-.583-1.483c-.422-.4-.917-.595-1.483-.583s-1.039.228-1.417.65z" style="fill:var(--color5, #7eb101)"/>
		</symbol>
		<symbol id="icon-touch-app" viewBox="0 0 32 32">
			<path fill="#7eb101" d="M15.5 1.333c2.022 0 3.75.706 5.183 2.117s2.15 3.128 2.15 5.15c0 1.156-.25 2.244-.75 3.267s-1.206 1.889-2.117 2.6h-1.133V12.8c.644-.511 1.139-1.133 1.483-1.867s.517-1.511.517-2.333c0-1.467-.522-2.711-1.567-3.733s-2.3-1.533-3.767-1.533-2.722.511-3.767 1.533-1.567 2.267-1.567 3.733c0 .822.172 1.6.517 2.333s.839 1.356 1.483 1.867v2.4c-1.244-.645-2.222-1.556-2.933-2.733S8.165 10 8.165 8.6c0-2.022.717-3.739 2.15-5.15s3.161-2.117 5.183-2.117zm-1.266 28c-.378 0-.733-.072-1.067-.217s-.622-.339-.867-.583l-6.867-6.867L7.3 19.733c.311-.311.661-.55 1.05-.717s.794-.194 1.217-.083l2.6.6V8.666c0-.933.322-1.722.967-2.367s1.433-.967 2.367-.967c.933 0 1.722.322 2.367.967s.967 1.433.967 2.367v5.733h.867c.111 0 .211.022.3.067s.189.089.3.133l4.933 2.4c.533.244.928.639 1.183 1.183s.328 1.106.217 1.683l-1.2 7.267c-.111.645-.422 1.172-.933 1.583s-1.089.617-1.733.617h-8.533zm-.267-2h9.367l1.433-8.3-6.1-3.033h-1.833V8.667c0-.4-.122-.722-.367-.967s-.567-.367-.967-.367-.722.122-.967.367c-.245.244-.367.567-.367.967v13.3l-5.133-1.1-.767.767 5.7 5.7zm9.367 0z" style="fill:var(--color5, #7eb101)"/>
		</symbol>
		<symbol id="burger" viewBox="0 0 32 32">
			<path d="M2.666 8c0-0.354 0.14-0.693 0.391-0.943s0.589-0.391 0.943-0.391h24c0.354 0 0.693 0.14 0.943 0.391s0.39 0.589 0.39 0.943c0 0.354-0.14 0.693-0.39 0.943s-0.589 0.391-0.943 0.391h-24c-0.354 0-0.693-0.14-0.943-0.391s-0.391-0.589-0.391-0.943zM2.666 16.043c0-0.354 0.14-0.693 0.391-0.943s0.589-0.39 0.943-0.39h24c0.354 0 0.693 0.14 0.943 0.39s0.39 0.589 0.39 0.943c0 0.354-0.14 0.693-0.39 0.943s-0.589 0.39-0.943 0.39h-24c-0.354 0-0.693-0.14-0.943-0.39s-0.391-0.589-0.391-0.943zM4 22.752c-0.354 0-0.693 0.141-0.943 0.39s-0.391 0.589-0.391 0.943 0.14 0.693 0.391 0.943c0.25 0.25 0.589 0.39 0.943 0.39h24c0.354 0 0.693-0.14 0.943-0.39s0.39-0.589 0.39-0.943c0-0.354-0.14-0.693-0.39-0.943s-0.589-0.39-0.943-0.39h-24z"/>
		</symbol>
		<symbol id="close" viewBox="0 0 30 32">
			<path d="M16.219 14.826l4.928-4.924c0.166-0.194 0.253-0.443 0.243-0.698s-0.116-0.497-0.296-0.677c-0.181-0.18-0.423-0.286-0.678-0.296s-0.505 0.077-0.699 0.243l-4.928 4.873-4.958-4.954c-0.194-0.166-0.443-0.253-0.699-0.243s-0.497 0.116-0.678 0.296c-0.181 0.18-0.286 0.422-0.296 0.677s0.077 0.504 0.243 0.698l4.948 5.005-4.846 4.782c-0.106 0.091-0.192 0.203-0.253 0.328s-0.095 0.263-0.1 0.402 0.018 0.279 0.069 0.409c0.051 0.13 0.128 0.248 0.227 0.347s0.217 0.176 0.347 0.227c0.13 0.051 0.269 0.074 0.409 0.069s0.277-0.040 0.402-0.1c0.126-0.061 0.238-0.147 0.329-0.253l4.836-4.833 4.806 4.802c0.194 0.166 0.443 0.253 0.699 0.243s0.497-0.116 0.678-0.296c0.181-0.18 0.286-0.422 0.296-0.677s-0.077-0.504-0.243-0.698l-4.786-4.751z"/>
		</symbol>
		<symbol id="icon-rocket" viewBox="0 0 32 32">
			<path fill="#7eb101" style="fill: var(--color1, #7eb101)" d="M7.233 13.633l3.533 1.5c0.4-0.8 0.828-1.589 1.283-2.367s0.939-1.522 1.45-2.233l-2.633-0.533-3.633 3.633zM12.367 16.333l4.433 4.433c1.267-0.578 2.456-1.233 3.567-1.967s2.011-1.444 2.7-2.133c1.8-1.8 3.122-3.644 3.967-5.533s1.3-4.022 1.367-6.4c-2.378 0.067-4.511 0.522-6.4 1.367s-3.733 2.167-5.533 3.967c-0.689 0.689-1.4 1.589-2.133 2.7s-1.389 2.3-1.967 3.567zM20 13.133c-0.444-0.444-0.667-0.995-0.667-1.65s0.222-1.206 0.667-1.65 0.994-0.667 1.65-0.667c0.656 0 1.206 0.222 1.65 0.667s0.667 0.994 0.667 1.65c0 0.655-0.222 1.206-0.667 1.65s-0.994 0.667-1.65 0.667-1.206-0.222-1.65-0.667zM19.5 25.9l3.633-3.633-0.533-2.633c-0.711 0.511-1.456 0.994-2.233 1.45s-1.567 0.883-2.367 1.283l1.5 3.533zM30.367 2.767c0.2 3.022-0.178 5.778-1.133 8.267s-2.533 4.833-4.733 7.033l-0.133 0.133 0.733 3.667c0.067 0.333 0.050 0.656-0.050 0.967s-0.272 0.589-0.517 0.833l-5.7 5.733-2.833-6.6-5.667-5.667-6.6-2.833 5.733-5.7c0.244-0.244 0.522-0.417 0.833-0.517s0.633-0.117 0.967-0.050l3.667 0.733c0.022-0.022 0.044-0.039 0.067-0.050s0.044-0.028 0.067-0.050c2.2-2.2 4.544-3.783 7.033-4.75s5.244-1.35 8.267-1.15zM5.967 21.167c0.778-0.778 1.728-1.172 2.85-1.183s2.072 0.372 2.85 1.15c0.778 0.778 1.161 1.728 1.15 2.85s-0.406 2.072-1.183 2.85c-0.578 0.578-1.472 1.055-2.683 1.433s-3.028 0.733-5.45 1.067c0.333-2.422 0.683-4.244 1.050-5.467s0.839-2.122 1.417-2.7zM7.367 22.6c-0.311 0.333-0.589 0.856-0.833 1.567s-0.456 1.622-0.633 2.733c1.111-0.178 2.022-0.389 2.733-0.633s1.233-0.522 1.567-0.833c0.422-0.378 0.639-0.85 0.65-1.417s-0.183-1.061-0.583-1.483c-0.422-0.4-0.917-0.595-1.483-0.583s-1.039 0.228-1.417 0.65z"/>
		</symbol>
		<symbol id="icon-touch" viewBox="0 0 32 32">
			<path fill="#7eb101" style="fill: var(--color1, #7eb101)" d="M15.5 1.333c2.022 0 3.75 0.706 5.183 2.117s2.15 3.128 2.15 5.15c0 1.156-0.25 2.244-0.75 3.267s-1.206 1.889-2.117 2.6h-1.133v-1.667c0.645-0.511 1.139-1.133 1.483-1.867s0.517-1.511 0.517-2.333c0-1.467-0.522-2.711-1.567-3.733s-2.3-1.533-3.767-1.533-2.722 0.511-3.767 1.533c-1.044 1.022-1.567 2.267-1.567 3.733 0 0.822 0.172 1.6 0.517 2.333s0.839 1.356 1.483 1.867v2.4c-1.245-0.645-2.222-1.556-2.933-2.733s-1.067-2.467-1.067-3.867c0-2.022 0.717-3.739 2.15-5.15s3.161-2.117 5.183-2.117zM14.233 29.333c-0.378 0-0.733-0.072-1.067-0.217s-0.622-0.339-0.867-0.583l-6.867-6.867 1.867-1.933c0.311-0.311 0.661-0.55 1.050-0.717s0.794-0.194 1.217-0.083l2.6 0.6v-10.867c0-0.933 0.322-1.722 0.967-2.367s1.433-0.967 2.367-0.967 1.722 0.322 2.367 0.967c0.644 0.644 0.967 1.433 0.967 2.367v5.733h0.867c0.111 0 0.211 0.022 0.3 0.067s0.189 0.089 0.3 0.133l4.933 2.4c0.533 0.244 0.928 0.639 1.183 1.183s0.328 1.106 0.217 1.683l-1.2 7.267c-0.111 0.645-0.422 1.172-0.933 1.583s-1.089 0.617-1.733 0.617h-8.533zM13.967 27.333h9.367l1.433-8.3-6.1-3.033h-1.833v-7.333c0-0.4-0.122-0.722-0.367-0.967s-0.567-0.367-0.967-0.367-0.722 0.122-0.967 0.367c-0.244 0.244-0.367 0.567-0.367 0.967v13.3l-5.133-1.1-0.767 0.767 5.7 5.7zM23.333 27.333v0z"/>
		</symbol>
		<symbol id="icon-left" viewBox="0 0 18 32">
			<path d="M0.48 16.965l14.861 14.16c0.248 0.236 0.577 0.368 0.92 0.368s0.672-0.132 0.92-0.368l0.016-0.016c0.121-0.115 0.217-0.252 0.282-0.405s0.1-0.317 0.1-0.484-0.034-0.331-0.1-0.484c-0.066-0.153-0.162-0.291-0.282-0.405l-13.995-13.333 13.995-13.328c0.121-0.115 0.217-0.253 0.282-0.405s0.1-0.318 0.1-0.484-0.034-0.331-0.1-0.484c-0.066-0.153-0.162-0.291-0.282-0.405l-0.016-0.016c-0.248-0.236-0.578-0.368-0.92-0.368s-0.672 0.132-0.92 0.368l-14.861 14.16c-0.131 0.125-0.235 0.274-0.306 0.44s-0.108 0.345-0.108 0.525c0 0.181 0.037 0.359 0.108 0.525s0.175 0.316 0.306 0.44z"/>
		</symbol>
		<symbol id="icon-right" viewBox="0 0 18 32">
			<path d="M17.653 15.035l-14.861-14.16c-0.248-0.236-0.577-0.368-0.92-0.368s-0.672 0.132-0.92 0.368l-0.016 0.016c-0.121 0.115-0.217 0.253-0.282 0.405s-0.099 0.318-0.099 0.484c0 0.166 0.034 0.331 0.099 0.484s0.162 0.291 0.282 0.405l13.995 13.333-13.995 13.328c-0.121 0.115-0.217 0.252-0.282 0.405s-0.099 0.317-0.099 0.484 0.034 0.331 0.099 0.484c0.066 0.153 0.162 0.291 0.282 0.405l0.016 0.016c0.248 0.236 0.577 0.368 0.92 0.368s0.672-0.132 0.92-0.368l14.861-14.16c0.131-0.125 0.235-0.274 0.306-0.44s0.108-0.345 0.108-0.525c0-0.181-0.037-0.359-0.108-0.525s-0.175-0.316-0.306-0.44z"/>
		</symbol>
	</defs>
</svg>
