<svg width="12" height="22" viewBox="0 0 12 22" fill="none" xmlns="http://www.w3.org/2000/svg">
<path d="M11.2401 10.7284L11.2401 10.7284C11.2769 10.7635 11.3061 10.8056 11.3261 10.8523L11.7857 10.6553L11.3261 10.8523C11.3461 10.8989 11.3564 10.9492 11.3564 10.9999C11.3564 11.0507 11.3461 11.101 11.3261 11.1476L11.7857 11.3445L11.3261 11.1476C11.3061 11.1943 11.2769 11.2364 11.2401 11.2714L11.2401 11.2715L1.48736 20.564L1.48727 20.564C1.41753 20.6305 1.32487 20.6676 1.22852 20.6676C1.13374 20.6676 1.04253 20.6317 0.973195 20.5673L0.967806 20.5619L0.967921 20.5618L0.958644 20.5529C0.928655 20.5245 0.90477 20.4902 0.888449 20.4521C0.872129 20.4141 0.863712 20.3732 0.863712 20.3318C0.863712 20.2904 0.872128 20.2495 0.888449 20.2115C0.90477 20.1735 0.928653 20.1392 0.958644 20.1107L0.959092 20.1103L10.1431 11.3638L10.5232 11.0018L10.1432 10.6397L0.959166 1.88969L0.958645 1.88919C0.928654 1.8607 0.90477 1.8264 0.88845 1.78839C0.872129 1.75037 0.863713 1.70944 0.863713 1.66807C0.863713 1.6267 0.872129 1.58576 0.888449 1.54775C0.90477 1.50973 0.928654 1.47543 0.958645 1.44694L0.958758 1.44706L0.967809 1.43801L0.973205 1.43261C1.04254 1.36816 1.13374 1.33227 1.22852 1.33227C1.32487 1.33227 1.41753 1.36936 1.48727 1.43585L1.48736 1.43593L11.2401 10.7284Z" fill="white" stroke="#2C2C2C"/>
</svg>
